<?xml version="1.0" encoding="utf-8"?>
<!-- Generator: Adobe Illustrator 24.2.0, SVG Export Plug-In . SVG Version: 6.00 Build 0)  -->
<svg version="1.1" xmlns="http://www.w3.org/2000/svg" xmlns:xlink="http://www.w3.org/1999/xlink" x="0px" y="0px"
	 viewBox="0 0 893.92 906" style="enable-background:new 0 0 893.92 906;" xml:space="preserve">
<style type="text/css">
	.st0{fill:#D87727;}
	.st1{stroke:#000000;stroke-width:12;stroke-linecap:round;stroke-linejoin:round;stroke-miterlimit:10;}
	.st2{fill:#FFFFFF;}
	.st3{stroke:#000000;stroke-width:5;stroke-miterlimit:10;}
</style>
<g id="Layer_5">
	<rect x="1125.92" y="-48" class="st0" width="912" height="987"/>
	<g>
		<line class="st1" x1="-793.82" y1="1346.91" x2="-772.12" y2="1367.69"/>
		<line class="st1" x1="-771.24" y1="1322.83" x2="-754.36" y2="1347.69"/>
		<line class="st1" x1="-744.12" y1="1304" x2="-732.81" y2="1331.84"/>
		<line class="st1" x1="-713.67" y1="1291.26" x2="-708.43" y2="1320.85"/>
		<line class="st1" x1="-681.23" y1="1285.16" x2="-682.29" y2="1315.19"/>
		<line class="st1" x1="-648.23" y1="1285.98" x2="-655.54" y2="1315.12"/>
		<line class="st1" x1="-616.13" y1="1293.67" x2="-629.37" y2="1320.65"/>
		<line class="st1" x1="-586.35" y1="1307.91" x2="-604.93" y2="1331.52"/>
		<line class="st1" x1="-560.2" y1="1328.05" x2="-583.31" y2="1347.26"/>
		<line class="st1" x1="-538.83" y1="1353.22" x2="-565.45" y2="1367.17"/>
		<line class="st1" x1="-523.2" y1="1382.29" x2="-552.14" y2="1390.38"/>
		<line class="st1" x1="-513.99" y1="1413.99" x2="-543.99" y2="1415.85"/>
		<line class="st1" x1="-511.61" y1="1446.92" x2="-541.33" y2="1442.47"/>
		<line class="st1" x1="-516.17" y1="1479.61" x2="-544.3" y2="1469.05"/>
		<line class="st1" x1="-527.45" y1="1510.63" x2="-552.75" y2="1494.42"/>
		<line class="st1" x1="-544.97" y1="1538.61" x2="-566.33" y2="1517.47"/>
		<line class="st1" x1="-567.95" y1="1562.31" x2="-584.42" y2="1537.17"/>
		<line class="st1" x1="-595.38" y1="1580.68" x2="-606.22" y2="1552.66"/>
		<path d="M-707.08,1536c6.83-6.48,22.51-4.82,29,2l40,40c6.48,6.83,5.93,20.68-0.89,27.16l-9.36,8.89
			c-7.82,7.43-17.48,12.65-27.99,15.12l-0.31,0.07c-1.86,0.44-3.77,0.6-5.68,0.61c-3.43,0.02-7.45,0.97-19.77,0.14
			c-25.46-1.7-61.3-19.07-103-63c-41.7-43.93-55-82-60-104c-1.42-6.24-0.77-17.29-0.32-24.34c0.26-3.97,0.76-7.91,1.57-11.8
			c0.75-3.6,1.44-5.31,5.37-11.02c0.48-0.7,1.07-1.09,1.41-1.55l13.79-13.38l5.74-4.96c6.83-6.48,21.96-3.79,28.44,3.04l33,37
			c6.48,6.83,9.15,27.17,2.32,33.66l-2.72,2.56c-11.77,11.08-11.96,27.46-1.56,39.83c4.14,4.92,8.33,8.4,16.16,16.64
			c3.86,4.07,7.03,7.21,9.83,9.77c12.98,11.88,32.25,12.54,43.63-0.88L-707.08,1536z"/>
		<text transform="matrix(1 0 0 1.12 -754.0838 1474.4775)"><tspan x="0" y="0" style="font-family:'ArialRoundedMTBold'; font-size:83.8382px; letter-spacing:-9;">2</tspan><tspan x="40.18" y="0" style="font-family:'ArialRoundedMTBold'; font-size:83.8382px; letter-spacing:3;">4</tspan><tspan x="93.69" y="0" style="font-family:'ArialRoundedMTBold'; font-size:83.8382px; letter-spacing:2;">/</tspan><tspan x="119.74" y="0" style="font-family:'ArialRoundedMTBold'; font-size:83.8382px; letter-spacing:-4;">7</tspan></text>
	</g>
	<g>
		<line class="st1" x1="1011.3" y1="2252.58" x2="1055.21" y2="2294.63"/>
		<line class="st1" x1="1056.99" y1="2203.87" x2="1091.14" y2="2254.16"/>
		<line class="st1" x1="1111.85" y1="2165.78" x2="1134.73" y2="2222.1"/>
		<line class="st1" x1="1173.45" y1="2139.99" x2="1184.07" y2="2199.85"/>
		<line class="st1" x1="1239.09" y1="2127.66" x2="1236.96" y2="2188.41"/>
		<line class="st1" x1="1305.85" y1="2129.31" x2="1291.07" y2="2188.27"/>
		<line class="st1" x1="1370.8" y1="2144.88" x2="1344.02" y2="2199.45"/>
		<line class="st1" x1="1431.06" y1="2173.68" x2="1393.46" y2="2221.45"/>
		<line class="st1" x1="1483.96" y1="2214.43" x2="1437.21" y2="2253.29"/>
		<line class="st1" x1="1527.18" y1="2265.35" x2="1473.34" y2="2293.58"/>
		<line class="st1" x1="1558.81" y1="2324.17" x2="1500.26" y2="2340.53"/>
		<line class="st1" x1="1577.44" y1="2388.3" x2="1516.76" y2="2392.06"/>
		<line class="st1" x1="1582.26" y1="2454.92" x2="1522.14" y2="2445.91"/>
		<line class="st1" x1="1573.04" y1="2521.06" x2="1516.13" y2="2499.69"/>
		<line class="st1" x1="1550.21" y1="2583.82" x2="1499.02" y2="2551.03"/>
		<line class="st1" x1="1514.77" y1="2640.43" x2="1471.56" y2="2597.66"/>
		<line class="st1" x1="1468.27" y1="2688.37" x2="1434.96" y2="2637.52"/>
		<line class="st1" x1="1412.79" y1="2725.54" x2="1390.84" y2="2668.85"/>
		<path d="M1186.79,2635.14c13.81-13.11,45.55-9.76,58.67,4.05l80.93,80.93c13.11,13.81,12.01,41.85-1.81,54.96l-18.95,17.99
			c-15.83,15.03-35.37,25.58-56.62,30.58l-0.62,0.15c-3.77,0.89-7.63,1.22-11.49,1.24c-6.93,0.04-15.07,1.95-39.99,0.29
			c-51.51-3.43-124.02-38.58-208.39-127.46c-84.36-88.88-111.27-165.9-121.39-210.41c-2.87-12.63-1.56-34.97-0.64-49.23
			c0.52-8.02,1.54-16,3.17-23.87c1.51-7.29,2.9-10.75,10.86-22.3c0.97-1.41,2.16-2.21,2.86-3.13l27.9-27.07l11.61-10.03
			c13.81-13.11,44.42-7.66,57.53,6.15l66.76,74.86c13.11,13.81,18.52,54.97,4.7,68.09l-5.51,5.18
			c-23.82,22.41-24.21,55.56-3.15,80.58c8.37,9.95,16.85,16.99,32.69,33.67c7.81,8.23,14.23,14.59,19.89,19.77
			c26.26,24.04,65.25,25.37,88.28-1.79L1186.79,2635.14z"/>
		<text transform="matrix(1 0 0 1.12 1091.6959 2510.6768)"><tspan x="0" y="0" style="font-family:'ArialRoundedMTBold'; font-size:169.6192px; letter-spacing:-19;">2</tspan><tspan x="81.29" y="0" style="font-family:'ArialRoundedMTBold'; font-size:169.6192px; letter-spacing:7;">4</tspan><tspan x="189.55" y="0" style="font-family:'ArialRoundedMTBold'; font-size:169.6192px; letter-spacing:5;">/</tspan><tspan x="242.26" y="0" style="font-family:'ArialRoundedMTBold'; font-size:169.6192px; letter-spacing:-8;">7</tspan></text>
	</g>
</g>
<g id="Layer_6">
	<g>
		<path d="M-574.41-581.5h-105.01c-8.92,0-16.16-7.24-16.16-16.16v-97.01c0-1.29-1.04-2.33-2.33-2.33h-143.63
			c-13.55,0-24.54,10.99-24.54,24.54v312.92c0,13.55,10.99,24.54,24.54,24.54h244.92c13.55,0,24.54-10.99,24.54-24.54v-219.63
			C-572.08-580.46-573.12-581.5-574.41-581.5z M-818.08-601h84c5.52,0,10,4.48,10,10c0,5.52-4.48,10-10,10h-84
			c-5.52,0-10-4.48-10-10C-828.08-596.52-823.6-601-818.08-601z M-617.08-387h-201c-5.52,0-10-4.48-10-10c0-5.52,4.48-10,10-10h201
			c5.52,0,10,4.48,10,10C-607.08-391.48-611.56-387-617.08-387z M-617.08-425.8h-201c-5.52,0-10-4.48-10-10c0-5.52,4.48-10,10-10
			h201c5.52,0,10,4.48,10,10C-607.08-430.28-611.56-425.8-617.08-425.8z M-617.08-464.6h-201c-5.52,0-10-4.48-10-10
			c0-5.52,4.48-10,10-10h201c5.52,0,10,4.48,10,10C-607.08-469.08-611.56-464.6-617.08-464.6z M-617.08-503.4h-201
			c-5.52,0-10-4.48-10-10s4.48-10,10-10h201c5.52,0,10,4.48,10,10S-611.56-503.4-617.08-503.4z M-617.08-542.2h-201
			c-5.52,0-10-4.48-10-10s4.48-10,10-10h201c5.52,0,10,4.48,10,10S-611.56-542.2-617.08-542.2z"/>
		<path d="M-674.08-686.62v69.4c0,8.41,6.81,15.22,15.22,15.22h68.4c1.62,0,2.43-1.95,1.3-3.1l-81.8-82.79
			C-672.11-689.05-674.08-688.24-674.08-686.62z"/>
	</g>
	<g>
		<path d="M739.65-1678.52H527.2c-18.05,0-32.69-14.65-32.69-32.69v-196.27c0-2.61-2.1-4.71-4.71-4.71H199.2
			c-27.41,0-49.65,22.23-49.65,49.65v633.09c0,27.41,22.23,49.65,49.65,49.65h495.52c27.41,0,49.65-22.23,49.65-49.65v-444.35
			C744.36-1676.42,742.26-1678.52,739.65-1678.52z M246.66-1717.97h169.95c11.17,0,20.23,9.06,20.23,20.23
			c0,11.17-9.06,20.23-20.23,20.23H246.66c-11.17,0-20.23-9.06-20.23-20.23C226.43-1708.91,235.5-1717.97,246.66-1717.97z
			 M653.32-1285.01H246.66c-11.17,0-20.23-9.06-20.23-20.23c0-11.17,9.06-20.23,20.23-20.23h406.66c11.17,0,20.23,9.06,20.23,20.23
			C673.55-1294.08,664.49-1285.01,653.32-1285.01z M653.32-1363.51H246.66c-11.17,0-20.23-9.06-20.23-20.23
			c0-11.17,9.06-20.23,20.23-20.23h406.66c11.17,0,20.23,9.06,20.23,20.23C673.55-1372.58,664.49-1363.51,653.32-1363.51z
			 M653.32-1442.01H246.66c-11.17,0-20.23-9.06-20.23-20.23c0-11.17,9.06-20.23,20.23-20.23h406.66c11.17,0,20.23,9.06,20.23,20.23
			C673.55-1451.07,664.49-1442.01,653.32-1442.01z M653.32-1520.51H246.66c-11.17,0-20.23-9.06-20.23-20.23s9.06-20.23,20.23-20.23
			h406.66c11.17,0,20.23,9.06,20.23,20.23S664.49-1520.51,653.32-1520.51z M653.32-1599.01H246.66c-11.17,0-20.23-9.06-20.23-20.23
			s9.06-20.23,20.23-20.23h406.66c11.17,0,20.23,9.06,20.23,20.23S664.49-1599.01,653.32-1599.01z"/>
		<path d="M538-1891.19v140.4c0,17.01,13.79,30.79,30.79,30.79h138.38c3.27,0,4.92-3.95,2.62-6.27L544.3-1893.78
			C541.99-1896.12,538-1894.48,538-1891.19z"/>
	</g>
</g>
<g id="Layer_4">
	<g>
		<circle cx="-656.58" cy="-47.5" r="49"/>
		<path d="M-540.58,92.59v40.5c0,0.23-0.18,0.41-0.41,0.41h-99c0.23,0,0.41-0.22,0.41-0.5V83.82c0-7.9-2.25-15.54-6.37-21.65
			c-5.01-7.42-13.47-17.21-27.01-26c5.2-0.38,10.65-0.61,16.38-0.67c68.25,0.71,98.08,25.17,109.63,39.26
			C-542.83,79.79-540.58,86.08-540.58,92.59z"/>
		<circle cx="-786.58" cy="-47.5" r="49"/>
		<path d="M-670.58,90.59v40.5c0,0.23-0.18,0.41-0.41,0.41h-231.18c-0.23,0-0.41-0.18-0.41-0.41v-40.5c0-6.51,2.25-12.8,6.37-17.83
			c7.05-8.6,20.9-21.05,46.13-29.62c16.12-5.47,36.89-9.36,63.5-9.64c27.44,0.29,48.67,4.41,65,10.16
			c24.28,8.54,37.72,20.68,44.63,29.1C-672.83,77.79-670.58,84.08-670.58,90.59z"/>
	</g>
	<g>
		<circle cx="578.46" cy="-723.53" r="99.14"/>
		<path d="M813.15-440.1v81.94c0,0.47-0.36,0.83-0.83,0.83H612.03c0.47,0,0.83-0.45,0.83-1.01v-99.5c0-15.98-4.55-31.44-12.89-43.8
			c-10.14-15.01-27.25-34.82-54.65-52.6c10.52-0.77,21.55-1.23,33.14-1.36c138.08,1.44,198.43,50.92,221.8,79.43
			C808.6-466,813.15-453.28,813.15-440.1z"/>
		<circle cx="315.45" cy="-723.53" r="99.14"/>
		<path d="M550.14-444.15v81.94c0,0.47-0.36,0.83-0.83,0.83H81.59c-0.47,0-0.83-0.36-0.83-0.83v-81.94
			c0-13.17,4.55-25.9,12.89-36.07c14.26-17.4,42.28-42.59,93.33-59.93c32.61-11.07,74.63-18.94,128.47-19.5
			c55.52,0.59,98.47,8.92,131.51,20.56c49.12,17.28,76.31,41.84,90.29,58.87C545.59-470.05,550.14-457.32,550.14-444.15z"/>
	</g>
</g>
<g id="Layer_2">
	<g>
		<path d="M-582.38,327h-57.1l-29.71-33.3c-2.09-2.35-5.1-3.7-8.25-3.7h-100.11c-3.14,0-6.13,1.34-8.23,3.67L-815.67,327h-57.11
			c-20.05,0-36.3,16.25-36.3,36.3v216.4c0,20.05,16.25,36.3,36.3,36.3h290.4c20.05,0,36.3-16.25,36.3-36.3V363.3
			C-546.08,343.25-562.33,327-582.38,327z M-727.58,561c-49.7,0-90-40.29-90-90c0-49.71,40.3-90,90-90c49.71,0,90,40.29,90,90
			C-637.58,520.71-677.87,561-727.58,561z"/>
		<circle cx="-727.58" cy="471" r="58"/>
		<g>
			<circle class="st2" cx="-727.58" cy="471" r="58"/>
		</g>
		<circle cx="-727.58" cy="471" r="58"/>
	</g>
	<g>
		<path d="M-1722.28-1127.92h-115.52l-60.11-67.37c-4.23-4.75-10.32-7.49-16.69-7.49h-202.54c-6.35,0-12.4,2.71-16.65,7.43
			l-60.47,67.43h-115.54c-40.56,0-73.44,32.88-73.44,73.44v437.82c0,40.56,32.88,73.44,73.44,73.44h587.53
			c40.56,0,73.44-32.88,73.44-73.44v-437.82C-1648.84-1095.05-1681.71-1127.92-1722.28-1127.92z M-2016.04-654.5
			c-100.55,0-182.09-81.51-182.09-182.09c0-100.57,81.53-182.09,182.09-182.09c100.57,0,182.09,81.51,182.09,182.09
			C-1833.96-736.01-1915.47-654.5-2016.04-654.5z"/>
		<circle cx="-2016.04" cy="-836.58" r="117.34"/>
		<g>
			<circle class="st2" cx="-2016.04" cy="-836.58" r="117.34"/>
		</g>
		<circle cx="-2016.04" cy="-836.58" r="117.34"/>
	</g>
</g>
<g id="Layer_3">
	<g>
		<path d="M-554.12,848h-347.43c-7.07,0-8.73-9.88-2.05-12.19l171.84-59.45c2.55-0.88,5.31-0.88,7.86,0l171.84,59.45
			C-545.39,838.12-547.05,848-554.12,848z"/>
		<g>
			<path d="M-812.32,1014h-47.02c-3.58,0-6.49-2.9-6.49-6.49V875.49c0-3.58,2.9-6.49,6.49-6.49h47.02c3.58,0,6.49,2.9,6.49,6.49
				v132.02C-805.83,1011.1-808.74,1014-812.32,1014z"/>
			<path d="M-596.32,1014h-47.02c-3.58,0-6.49-2.9-6.49-6.49V875.49c0-3.58,2.9-6.49,6.49-6.49h47.02c3.58,0,6.49,2.9,6.49,6.49
				v132.02C-589.83,1011.1-592.74,1014-596.32,1014z"/>
		</g>
		<path d="M-578.35,1060.66l-298.89,0.69c-0.86,0-1.55-0.69-1.56-1.55l-0.06-27.96c-0.01-3.58,2.89-6.49,6.47-6.5l289.02-0.67
			c3.58-0.01,6.49,2.89,6.5,6.47l0.06,27.96C-576.8,1059.96-577.49,1060.65-578.35,1060.66z"/>
		<path d="M-554.82,1133.6l-345.89,0.8c-0.86,0-1.55-0.69-1.56-1.55l-0.12-53.96c-0.01-3.58,2.89-6.49,6.47-6.5l336.02-0.77
			c3.58-0.01,6.49,2.89,6.5,6.47l0.12,53.96C-553.27,1132.9-553.96,1133.6-554.82,1133.6z"/>
		<g>
			<path class="st3" d="M-703.33,964.21c0,3.16-0.58,6.13-1.75,8.9c-1.17,2.77-2.73,5.2-4.68,7.27c-1.96,2.08-4.23,3.71-6.82,4.9
				c-2.59,1.19-5.32,1.79-8.21,1.79h-6.1c-2.88,0-5.62-0.6-8.21-1.79c-2.59-1.19-4.86-2.83-6.82-4.9c-1.96-2.08-3.52-4.5-4.68-7.27
				c-1.17-2.77-1.75-5.74-1.75-8.9l0,0c0-2.14,2.1-4.33,4.21-4.71l0,0c1.55-0.28,3.44,1.09,3.44,2.66v2.04
				c0,2.08,0.39,4.02,1.16,5.81c0.77,1.8,1.81,3.38,3.11,4.74c1.25,1.31,2.7,2.35,4.33,3.12c1.86,0.88,3.92,1.26,5.98,1.26l4.99,0
				c1.9,0,3.69-0.39,5.39-1.17c1.7-0.78,3.2-1.85,4.5-3.21c1.3-1.36,2.34-2.94,3.11-4.74c0.77-1.8,1.16-3.73,1.16-5.81v-2.79
				c0-3.2-0.57-5.87-1.72-7.99c-1.15-2.12-2.67-3.93-4.56-5.42c-1.9-1.49-4.04-2.76-6.43-3.8c-2.39-1.04-4.85-2.08-7.38-3.12
				c-2.53-1.04-4.99-2.19-7.38-3.44c-2.39-1.25-4.53-2.83-6.43-4.71s-3.42-4.19-4.56-6.92c-1.15-2.73-1.72-6.08-1.72-10.07v-1.75
				c0-3.16,0.54-6.13,1.63-8.9c1.09-2.77,2.58-5.2,4.47-7.27c1.9-2.08,4.12-3.71,6.67-4.9c2.55-1.19,5.26-1.79,8.15-1.79h5.45
				c2.88,0,5.59,0.6,8.12,1.79c2.53,1.19,4.74,2.83,6.64,4.9c1.9,2.08,3.39,4.5,4.47,7.27c1.09,2.77,1.63,5.74,1.63,8.9l0,0
				c0,1.39-1.84,3.06-3.21,3.3l0,0c-1.61,0.29-4.44-1.04-4.44-2.67v-0.63c0-2.08-0.36-4.02-1.07-5.81c-0.71-1.8-1.68-3.37-2.9-4.71
				c-1.23-1.34-2.66-2.4-4.3-3.18c-1.64-0.78-3.41-1.17-5.3-1.17h-4.74c-1.9,0-3.67,0.39-5.3,1.17c-1.64,0.78-3.08,1.84-4.33,3.18
				c-1.24,1.34-2.22,2.91-2.93,4.71c-0.71,1.8-1.07,3.73-1.07,5.81v1.75c0,2.99,0.57,5.5,1.72,7.53c1.15,2.04,2.67,3.78,4.56,5.23
				c1.9,1.45,4.04,2.71,6.43,3.77c2.39,1.06,4.85,2.14,7.38,3.25c2.53,1.1,4.99,2.32,7.38,3.64c2.39,1.32,4.53,2.95,6.43,4.87
				c1.9,1.93,3.42,4.28,4.56,7.05c1.15,2.77,1.72,6.15,1.72,10.13V964.21z"/>
		</g>
		<path d="M-735.58,977h15.5v22.25c0,4.28-3.47,7.75-7.75,7.75l0,0c-4.28,0-7.75-3.47-7.75-7.75V977z"/>
		<path d="M-720.08,901h-15.5v-22.25c0-4.28,3.47-7.75,7.75-7.75l0,0c4.28,0,7.75,3.47,7.75,7.75V901z"/>
	</g>
	<g>
		<path d="M798.42,236.42H95.5c-14.3,0-17.66-19.99-4.15-24.66L439.01,91.48c5.15-1.78,10.75-1.78,15.9,0l347.65,120.28
			C816.08,216.43,812.72,236.42,798.42,236.42z"/>
		<g>
			<path d="M282.66,572.27H174.25c-3.58,0-6.49-2.9-6.49-6.49V285.39c0-3.58,2.9-6.49,6.49-6.49h108.42c3.58,0,6.49,2.9,6.49,6.49
				v280.39C289.15,569.36,286.25,572.27,282.66,572.27z"/>
			<path d="M719.67,572.27H611.25c-3.58,0-6.49-2.9-6.49-6.49V285.39c0-3.58,2.9-6.49,6.49-6.49h108.42c3.58,0,6.49,2.9,6.49,6.49
				v280.39C726.16,569.36,723.25,572.27,719.67,572.27z"/>
		</g>
		<path d="M750.98,666.65l-607.89,1.4c-0.86,0-1.55-0.69-1.56-1.55l-0.15-64.79c-0.01-3.58,2.89-6.49,6.47-6.5l598.02-1.38
			c3.58-0.01,6.49,2.89,6.5,6.47l0.15,64.79C752.53,665.95,751.83,666.65,750.98,666.65z"/>
		<path d="M798.58,814.24L95.6,815.86c-0.86,0-1.55-0.69-1.56-1.55l-0.27-117.4c-0.01-3.58,2.89-6.49,6.47-6.5l693.11-1.6
			c3.58-0.01,6.49,2.89,6.5,6.47l0.27,117.4C800.13,813.54,799.44,814.24,798.58,814.24z"/>
		<g>
			<path class="st3" d="M496.54,471.53c0,6.4-1.18,12.4-3.54,18c-2.36,5.61-5.52,10.51-9.47,14.72c-3.96,4.2-8.56,7.51-13.79,9.92
				c-5.24,2.41-10.77,3.61-16.61,3.61h-12.35c-5.84,0-11.37-1.21-16.61-3.61c-5.24-2.41-9.83-5.72-13.79-9.92
				c-3.96-4.21-7.12-9.11-9.47-14.72c-2.36-5.61-3.54-11.61-3.54-18v0c0-4.33,4.25-8.76,8.52-9.53l0,0c3.14-0.56,6.95,2.2,6.95,5.39
				v4.14c0,4.21,0.78,8.13,2.34,11.76c1.56,3.64,3.66,6.83,6.29,9.59c2.53,2.65,5.45,4.75,8.76,6.31c3.77,1.78,7.93,2.56,12.09,2.56
				l10.09,0c3.84,0,7.47-0.79,10.91-2.37c3.44-1.58,6.47-3.75,9.11-6.5c2.64-2.76,4.74-5.96,6.3-9.59
				c1.56-3.63,2.34-7.56,2.34-11.76v-5.65c0-6.48-1.16-11.87-3.48-16.16c-2.32-4.29-5.39-7.95-9.23-10.97
				c-3.84-3.02-8.17-5.58-13.01-7.69c-4.84-2.1-9.81-4.21-14.93-6.31c-5.12-2.1-10.09-4.42-14.93-6.96
				c-4.84-2.54-9.17-5.72-13.01-9.53c-3.84-3.81-6.92-8.48-9.23-13.99c-2.32-5.52-3.48-12.31-3.48-20.37v-3.55
				c0-6.39,1.1-12.39,3.3-18c2.2-5.6,5.22-10.51,9.05-14.72c3.84-4.21,8.33-7.51,13.49-9.92c5.16-2.41,10.65-3.61,16.49-3.61h11.03
				c5.83,0,11.31,1.21,16.43,3.61c5.12,2.41,9.59,5.72,13.43,9.92c3.84,4.2,6.85,9.11,9.05,14.72c2.2,5.61,3.3,11.61,3.3,18l0,0
				c0,2.81-3.72,6.19-6.49,6.68l0,0c-3.26,0.58-8.97-2.1-8.97-5.4v-1.28c0-4.2-0.72-8.12-2.16-11.76c-1.44-3.63-3.4-6.81-5.88-9.53
				c-2.48-2.71-5.38-4.86-8.69-6.44c-3.32-1.58-6.9-2.36-10.73-2.36h-9.59c-3.84,0-7.42,0.79-10.73,2.36
				c-3.32,1.58-6.24,3.73-8.75,6.44c-2.52,2.72-4.5,5.89-5.94,9.53c-1.44,3.64-2.16,7.56-2.16,11.76v3.55
				c0,6.04,1.16,11.13,3.48,15.24c2.32,4.12,5.4,7.64,9.23,10.58c3.84,2.94,8.17,5.48,13.01,7.62c4.84,2.15,9.81,4.34,14.93,6.57
				c5.12,2.23,10.09,4.69,14.93,7.36c4.84,2.67,9.17,5.96,13.01,9.86c3.84,3.9,6.91,8.65,9.23,14.26c2.32,5.61,3.48,12.44,3.48,20.5
				V471.53z"/>
		</g>
		<path d="M431.28,497.41h31.36v56.63c0,2.24-1.82,4.06-4.06,4.06h-23.23c-2.24,0-4.06-1.82-4.06-4.06V497.41z"/>
		<path d="M462.64,343.65h-31.36v-56.63c0-2.24,1.82-4.06,4.06-4.06h23.23c2.24,0,4.06,1.82,4.06,4.06V343.65z"/>
	</g>
</g>
</svg>
