<?xml version="1.0" encoding="utf-8"?>
<!-- Generator: Adobe Illustrator 24.2.0, SVG Export Plug-In . SVG Version: 6.00 Build 0)  -->
<svg version="1.1" id="Layer_1" xmlns="http://www.w3.org/2000/svg" xmlns:xlink="http://www.w3.org/1999/xlink" x="0px" y="0px"
	 viewBox="0 0 60.6 61.6" style="enable-background:new 0 0 60.6 61.6;" xml:space="preserve">
<style type="text/css">
	.st0{fill:none;stroke:#33A5F9;stroke-miterlimit:10;}
	.st1{fill:url(#SVGID_1_);}
	.st2{opacity:0.3;}
	.st3{fill:url(#SVGID_2_);}
	.st4{filter:url(#Adobe_OpacityMaskFilter);}
	.st5{opacity:0.2;mask:url(#SVGID_3_);}
	.st6{fill:#EA8A21;}
	.st7{opacity:0.15;}
	.st8{fill:url(#SVGID_4_);}
	.st9{filter:url(#Adobe_OpacityMaskFilter_1_);}
	.st10{opacity:0.2;mask:url(#SVGID_5_);}
	.st11{opacity:0.6;fill:#A54707;}
	.st12{fill:#FFFFFF;}
</style>
<image style="overflow:visible;enable-background:new    ;" width="238" height="250" xlink:href="47135199.png"  transform="matrix(0.1006 0 0 0.1006 810.9863 1763.3562)">
</image>
<image style="overflow:visible;" width="238" height="250" xlink:href="../Downloads/modern-3d-hot-and-cold-icon-set-flame-snowflake-vector-27382110.png"  transform="matrix(0.2547 0 0 0.2547 389.52 206.6375)">
</image>
<circle class="st0" cx="419.8" cy="238.1" r="25.2"/>
<radialGradient id="SVGID_1_" cx="30.2313" cy="31.5109" r="29.6093" gradientUnits="userSpaceOnUse">
	<stop  offset="0" style="stop-color:#FFD4A6"/>
	<stop  offset="8.561808e-02" style="stop-color:#FDCE9B"/>
	<stop  offset="0.7108" style="stop-color:#F2A451"/>
	<stop  offset="1" style="stop-color:#ED9434"/>
</radialGradient>
<path class="st1" d="M59.8,31.7c0,7.5-2.9,15-8.7,20.8c-6,6-14,8.9-21.9,8.7c-7.3-0.2-14.4-3.1-20-8.7c-11.6-11.6-11.6-30.3,0-41.9
	C20.9-1,39.6-1,51.2,10.6C57,16.4,59.9,24,59.8,31.7z"/>
<g class="st2">
	
		<image style="overflow:visible;opacity:0.65;" width="117" height="117" xlink:href="4713519E.png"  transform="matrix(1 0 0 1 -28 -27.3592)">
	</image>
	<g>
		<g>
			<radialGradient id="SVGID_2_" cx="30.2307" cy="31.513" r="27.9315" fx="10.4814" fy="11.7613" gradientUnits="userSpaceOnUse">
				<stop  offset="0" style="stop-color:#FCE8D6"/>
				<stop  offset="1.698853e-02" style="stop-color:#FCDEC3"/>
				<stop  offset="6.241639e-02" style="stop-color:#FDC596"/>
				<stop  offset="0.111" style="stop-color:#FDAF6D"/>
				<stop  offset="0.1619" style="stop-color:#FE9C4B"/>
				<stop  offset="0.216" style="stop-color:#FE8D30"/>
				<stop  offset="0.2743" style="stop-color:#FF821B"/>
				<stop  offset="0.3388" style="stop-color:#FF790C"/>
				<stop  offset="0.4144" style="stop-color:#FF7403"/>
				<stop  offset="0.5286" style="stop-color:#FF7300"/>
				<stop  offset="0.986" style="stop-color:#C64700"/>
			</radialGradient>
			<circle class="st3" cx="30.2" cy="31.5" r="27.9"/>
		</g>
		<defs>
			<filter id="Adobe_OpacityMaskFilter" filterUnits="userSpaceOnUse" x="2.3" y="3.6" width="55.9" height="55.9">
				
					<feColorMatrix  type="matrix" values="-1 0 0 0 1  0 -1 0 0 1  0 0 -1 0 1  0 0 0 1 0" color-interpolation-filters="sRGB" result="source"/>
			</filter>
		</defs>
		<mask maskUnits="userSpaceOnUse" x="2.3" y="3.6" width="55.9" height="55.9" id="SVGID_3_">
			<g class="st4">
				<image style="overflow:visible;" width="61" height="61" xlink:href="4713519F.jpg"  transform="matrix(1 0 0 1 0 0.6408)">
				</image>
			</g>
		</mask>
		<g class="st5">
			<circle class="st6" cx="30.2" cy="31.5" r="27.9"/>
		</g>
	</g>
</g>
<g class="st7">
	
		<image style="overflow:visible;opacity:0.65;" width="117" height="117" xlink:href="4713519A.png"  transform="matrix(1 0 0 1 -28 -27.3592)">
	</image>
	<g>
		<g>
			<radialGradient id="SVGID_4_" cx="30.2307" cy="31.513" r="27.9315" fx="10.4814" fy="11.7613" gradientUnits="userSpaceOnUse">
				<stop  offset="0" style="stop-color:#FCE8D6"/>
				<stop  offset="1.698853e-02" style="stop-color:#FCDEC3"/>
				<stop  offset="6.241639e-02" style="stop-color:#FDC596"/>
				<stop  offset="0.111" style="stop-color:#FDAF6D"/>
				<stop  offset="0.1619" style="stop-color:#FE9C4B"/>
				<stop  offset="0.216" style="stop-color:#FE8D30"/>
				<stop  offset="0.2743" style="stop-color:#FF821B"/>
				<stop  offset="0.3388" style="stop-color:#FF790C"/>
				<stop  offset="0.4144" style="stop-color:#FF7403"/>
				<stop  offset="0.5286" style="stop-color:#FF7300"/>
				<stop  offset="0.986" style="stop-color:#C64700"/>
			</radialGradient>
			<circle class="st8" cx="30.2" cy="31.5" r="27.9"/>
		</g>
		<defs>
			<filter id="Adobe_OpacityMaskFilter_1_" filterUnits="userSpaceOnUse" x="2.3" y="3.6" width="55.9" height="55.9">
				
					<feColorMatrix  type="matrix" values="-1 0 0 0 1  0 -1 0 0 1  0 0 -1 0 1  0 0 0 1 0" color-interpolation-filters="sRGB" result="source"/>
			</filter>
		</defs>
		<mask maskUnits="userSpaceOnUse" x="2.3" y="3.6" width="55.9" height="55.9" id="SVGID_5_">
			<g class="st9">
				<image style="overflow:visible;" width="61" height="61" xlink:href="4713519B.jpg"  transform="matrix(1 0 0 1 0 0.6408)">
				</image>
			</g>
		</mask>
		<g class="st10">
			<circle class="st6" cx="30.2" cy="31.5" r="27.9"/>
		</g>
	</g>
</g>
<g>
	
		<image style="overflow:visible;enable-background:new    ;" width="238" height="250" xlink:href="47135196.png"  transform="matrix(0.7866 0 0 0.7866 -576.52 -198.24)">
	</image>
</g>
<g>
	
		<image style="overflow:visible;enable-background:new    ;" width="238" height="250" xlink:href="47135197.png"  transform="matrix(0.8294 0 0 0.8294 -350.44 -297.6)">
	</image>
</g>
<path class="st11" d="M59.8,31.7c0,7.5-2.9,15-8.7,20.8c-6,6-14,8.9-21.9,8.7l-14.8-21l25.9-25.9L59.8,31.7z"/>
<g>
	
		<image style="overflow:visible;opacity:0.3;" width="49" height="49" xlink:href="471351A9.png"  transform="matrix(1 0 0 1 3 2.6408)">
	</image>
	<g>
		<path class="st12" d="M44.3,34.3c-7.9-4.6-7.6-5.9,1.4-7.1c-9.1-1.3-9.3-2.5-1.4-7.1c-8.8,2.4-9.5,1.4-3.9-5.8
			c-7.3,5.6-8.3,4.9-5.8-3.9c-4.6,7.9-5.9,7.6-7.1-1.4c-1.3,9.1-2.5,9.3-7.1,1.4c2.4,8.8,1.4,9.5-5.8,3.9c5.6,7.3,4.9,8.3-3.9,5.8
			c7.9,4.6,7.6,5.9-1.4,7.1c9.1,1.3,9.3,2.5,1.4,7.1c8.8-2.4,9.5-1.4,3.9,5.8c7.3-5.6,8.3-4.9,5.8,3.9c4.6-7.9,5.9-7.6,7.1,1.4
			c1.3-9.1,2.5-9.3,7.1-1.4c-2.4-8.8-1.4-9.5,5.8-3.9C34.7,32.9,35.4,31.9,44.3,34.3z M27.4,37.3c-5.6,0-10.2-4.5-10.2-10.2
			c0-5.6,4.5-10.2,10.2-10.2c5.6,0,10.2,4.5,10.2,10.2C37.5,32.8,33,37.3,27.4,37.3z"/>
	</g>
</g>
<circle class="st12" cx="27.3" cy="27.1" r="9.2"/>
</svg>
